<svg width="313" height="404" viewBox="0 0 313 404" fill="none" xmlns="http://www.w3.org/2000/svg">
<path opacity="0.5" d="M146.574 123.837C173.956 107.856 196.593 122.792 200.598 157.279C201.295 163.244 196.768 171.126 191.239 174.348L101.91 226.514C96.3813 229.736 91.8539 227.124 92.5504 220.331C96.5554 181.272 119.236 139.818 146.574 123.837Z" fill="url(#paint0_linear_0_539)"/>
<path opacity="0.5" d="M116.058 79.0735C116.058 102.892 129.814 114.127 146.792 104.198C163.77 94.2704 177.526 66.9682 177.526 43.1495C177.526 19.3309 163.77 8.09646 146.792 18.0245C129.814 27.9526 116.058 55.2548 116.058 79.0735Z" fill="url(#paint1_linear_0_539)"/>
<path opacity="0.07" d="M128.987 109.554C156.369 93.5735 179.006 108.509 183.011 142.996C183.708 148.962 179.18 156.843 173.652 160.065L84.3227 212.231C78.7941 215.454 74.2667 212.841 74.9632 206.048C78.9682 166.989 101.605 125.535 128.987 109.554Z" fill="url(#paint2_linear_0_539)"/>
<path opacity="0.07" d="M98.4708 64.7908C98.4708 88.6094 112.227 99.8438 129.205 89.9158C146.183 79.9877 159.939 52.6855 159.939 28.8668C159.939 5.04814 146.183 -6.18626 129.205 3.74182C112.227 13.6699 98.4708 40.9721 98.4708 64.7908Z" fill="url(#paint3_linear_0_539)"/>
<path opacity="0.2" d="M39.3099 246.651C39.3099 245.049 40.1644 243.569 41.5514 242.768L109.941 203.271C112.93 201.544 116.667 203.702 116.667 207.154V239.708L39.3099 284.384V246.651Z" fill="url(#paint4_linear_0_539)"/>
<path d="M100.952 221.986C100.952 225.295 102.911 226.862 105.349 225.469C107.787 224.076 109.746 220.244 109.746 216.934C109.746 213.625 107.787 212.057 105.349 213.451C102.911 214.844 100.952 218.676 100.952 221.986Z" fill="#E559F9"/>
<path opacity="0.15" d="M96.8603 220.549L73.6138 234.004V238.837L96.9038 225.382L96.8603 220.549Z" fill="#FEFEFE"/>
<path opacity="0.15" d="M96.8604 230.259L47.3202 258.867V263.788L96.8604 235.179V230.259Z" fill="#FEFEFE"/>
<path opacity="0.2" d="M196.463 200.06C196.463 198.457 197.318 196.977 198.706 196.176L267.096 156.717C270.085 154.992 273.821 157.15 273.821 160.601V193.159L196.463 237.835V200.06Z" fill="url(#paint5_linear_0_539)"/>
<path d="M258.105 175.393C258.105 178.703 260.064 180.27 262.502 178.877C264.94 177.483 266.899 173.651 266.899 170.342C266.899 167.033 264.94 165.465 262.502 166.859C260.064 168.252 258.105 172.084 258.105 175.393Z" fill="#0788FF"/>
<path opacity="0.15" d="M254.144 174.174L240.126 182.273V187.194L254.144 179.094V174.174Z" fill="#FEFEFE"/>
<path opacity="0.15" d="M254.013 183.884L204.473 212.493V217.413L254.013 188.805V183.884Z" fill="#FEFEFE"/>
<path opacity="0.3" d="M146.614 249.832C146.616 246.378 142.878 244.219 139.887 245.946L2.28348 325.416C0.897168 326.216 0.0428408 327.695 0.0419291 329.296L-0.000120124 403.129L133.645 325.969L144.617 329.553C145.582 329.869 146.575 329.149 146.575 328.133L146.614 249.832Z" fill="url(#paint6_linear_0_539)"/>
<path d="M116.842 284.863C116.842 291.177 120.542 294.095 125.156 291.439C129.771 288.782 133.471 281.51 133.471 275.24C133.471 268.926 129.771 266.009 125.156 268.665C120.586 271.321 116.842 278.593 116.842 284.863Z" fill="#E559F9"/>
<path opacity="0.15" d="M108.919 282.425L76.7918 300.975V307.68L108.919 289.131V282.425Z" fill="#FEFEFE"/>
<path opacity="0.15" d="M108.919 295.88L12.9729 351.268V357.974L108.919 302.586V295.88Z" fill="#FEFEFE"/>
<path opacity="0.15" d="M108.919 309.335L33.9122 352.662V359.367L108.919 316.041V309.335Z" fill="#FEFEFE"/>
<path opacity="0.3" d="M166.424 266.593C166.425 264.992 167.28 263.512 168.667 262.712L306.27 183.284C309.26 181.558 312.998 183.717 312.996 187.17L312.956 255.819L179.311 332.979L169.118 348.084C168.293 349.307 166.384 348.722 166.384 347.248L166.424 266.593Z" fill="url(#paint7_linear_0_539)"/>
<path d="M196.202 272.41C196.202 278.723 192.458 285.952 187.887 288.608C183.273 291.264 179.572 288.303 179.572 281.989C179.572 275.675 183.316 268.447 187.887 265.791C192.458 263.178 196.202 266.139 196.202 272.41Z" fill="#0788FF"/>
<path opacity="0.15" d="M204.125 260.87L236.252 242.321V249.026L204.125 267.576V260.87Z" fill="#FEFEFE"/>
<path opacity="0.15" d="M204.081 274.282L300.027 218.894V225.6L204.125 280.988L204.081 274.282Z" fill="#FEFEFE"/>
<path opacity="0.15" d="M204.081 287.737L279.088 244.411V251.116L204.081 294.443V287.737Z" fill="#FEFEFE"/>
<path opacity="0.2" d="M62.8177 141.472L50.7156 165.247C49.0614 168.513 49.3226 171.779 51.3251 172.563C53.3276 173.347 56.2878 171.3 57.9421 168.034L58.0727 167.729V194.117C58.0727 197.122 60.1622 198.341 62.7742 196.86C65.3862 195.336 67.4757 191.722 67.4757 188.718V162.33L67.6063 162.46C69.2606 163.81 72.2643 162.417 74.2233 159.325C76.2258 156.234 76.487 152.663 74.8328 151.313L62.8177 141.472Z" fill="url(#paint8_linear_0_539)"/>
<defs>
<linearGradient id="paint0_linear_0_539" x1="33.6176" y1="97.7765" x2="144.84" y2="178.888" gradientUnits="userSpaceOnUse">
<stop stop-color="white"/>
<stop offset="1" stop-color="white" stop-opacity="0"/>
</linearGradient>
<linearGradient id="paint1_linear_0_539" x1="90.2879" y1="19.8907" x2="201.51" y2="101.003" gradientUnits="userSpaceOnUse">
<stop stop-color="white"/>
<stop offset="1" stop-color="white" stop-opacity="0"/>
</linearGradient>
<linearGradient id="paint2_linear_0_539" x1="16.0229" y1="83.4888" x2="127.245" y2="164.601" gradientUnits="userSpaceOnUse">
<stop stop-color="white"/>
<stop offset="1" stop-color="white" stop-opacity="0"/>
</linearGradient>
<linearGradient id="paint3_linear_0_539" x1="72.6933" y1="5.60263" x2="183.915" y2="86.7142" gradientUnits="userSpaceOnUse">
<stop stop-color="white"/>
<stop offset="1" stop-color="white" stop-opacity="0"/>
</linearGradient>
<linearGradient id="paint4_linear_0_539" x1="69.2704" y1="226.769" x2="86.727" y2="257.005" gradientUnits="userSpaceOnUse">
<stop stop-color="white"/>
<stop offset="1" stop-color="white" stop-opacity="0"/>
</linearGradient>
<linearGradient id="paint5_linear_0_539" x1="226.423" y1="180.183" x2="243.88" y2="210.419" gradientUnits="userSpaceOnUse">
<stop stop-color="white"/>
<stop offset="1" stop-color="white" stop-opacity="0"/>
</linearGradient>
<linearGradient id="paint6_linear_0_539" x1="83.6607" y1="244.547" x2="64.6993" y2="398.299" gradientUnits="userSpaceOnUse">
<stop stop-color="white"/>
<stop offset="1" stop-color="white" stop-opacity="0"/>
</linearGradient>
<linearGradient id="paint7_linear_0_539" x1="198.387" y1="233.403" x2="274.094" y2="292.664" gradientUnits="userSpaceOnUse">
<stop stop-color="white"/>
<stop offset="1" stop-color="white" stop-opacity="0"/>
</linearGradient>
<linearGradient id="paint8_linear_0_539" x1="54.2152" y1="165.456" x2="76.2981" y2="177.763" gradientUnits="userSpaceOnUse">
<stop stop-color="white"/>
<stop offset="1" stop-color="white" stop-opacity="0"/>
</linearGradient>
</defs>
</svg>
